<svg xmlns="http://www.w3.org/2000/svg" viewBox="0 0 70.39 28.35"><defs><style>.cls-1{fill:#005eb8;}.cls-2{fill:#fff;}</style></defs><g id="Layer_2" data-name="Layer 2"><g id="Layer_1-2" data-name="Layer 1"><polygon class="cls-1" points="0.57 0.57 0.57 27.78 69.73 27.78 69.73 0.57 0.57 0.57 0.57 0.57"/><path class="cls-2" d="M70.39,28.35V0H0V28.35ZM28.3,2.74,23.44,25.55H15.82L11,9.76H11L7.77,25.55H2L6.88,2.74h7.66l4.7,15.82h.06L22.52,2.74Zm21.81,0L45.35,25.55H39.21l2-9.77H34l-2,9.77H25.8L30.57,2.74h6.14l-1.8,8.72h7.25L44,2.74Zm17.65.62L66.28,7.9a11.72,11.72,0,0,0-5.06-1c-2.43,0-4.4.35-4.4,2.19,0,3.23,8.9,2,8.9,9,0,6.31-5.88,8-11.2,8a25.79,25.79,0,0,1-7.1-1.18l1.45-4.65a11.91,11.91,0,0,0,5.65,1.31c1.9,0,4.89-.36,4.89-2.71,0-3.66-8.9-2.29-8.9-8.72,0-5.89,5.19-7.66,10.22-7.66a18.69,18.69,0,0,1,7,1Z"/></g></g></svg>